<svg width="150" height="46" viewBox="0 0 150 46" fill="none" xmlns="http://www.w3.org/2000/svg">
<g id="Spotify svg" clip-path="url(#clip0_67_217)">
<g id="g10">
<g id="g12">
<path id="path14" d="M36.3886 20.2328C29.2465 15.9867 17.4657 15.5962 10.6476 17.6678C9.55268 18.0003 8.39492 17.3815 8.06316 16.2854C7.7314 15.1889 8.34883 14.0305 9.44447 13.6973C17.2712 11.3187 30.2818 11.7783 38.504 16.6645C39.489 17.2496 39.8121 18.5229 39.2281 19.5074C38.6439 20.4931 37.371 20.8181 36.3886 20.2328ZM36.1547 26.5221C35.6539 27.3361 34.5908 27.5912 33.7788 27.0917C27.8243 23.4275 18.7446 22.366 11.7 24.5066C10.7865 24.783 9.8216 24.2674 9.54422 23.3545C9.26886 22.44 9.78419 21.4757 10.6961 21.1976C18.7435 18.753 28.7475 19.9371 35.5864 24.1446C36.3984 24.6452 36.654 25.7101 36.1547 26.5221ZM33.4435 32.5621C33.0456 33.2156 32.1952 33.4206 31.5449 33.0222C26.3417 29.8387 19.7928 29.1195 12.0802 30.8833C11.3368 31.054 10.5962 30.5875 10.4266 29.8437C10.2564 29.0997 10.7204 28.3583 11.4653 28.1885C19.9054 26.2569 27.1454 27.0882 32.9855 30.6609C33.6367 31.0589 33.8417 31.9106 33.4435 32.5621ZM23.2822 0.568441C11.0454 0.568441 1.12509 10.4992 1.12509 22.7496C1.12509 35.0011 11.0454 44.9316 23.2822 44.9316C35.5195 44.9316 45.4392 35.0011 45.4392 22.7496C45.4392 10.4992 35.5195 0.568441 23.2822 0.568441Z" fill="#1ED760"/>
<path id="path16" d="M61.4068 21.0457C57.5812 20.1324 56.8999 19.4913 56.8999 18.1447C56.8999 16.872 58.0969 16.0159 59.8764 16.0159C61.6015 16.0159 63.3118 16.6662 65.1054 18.0049C65.1596 18.0454 65.2276 18.0616 65.2946 18.051C65.3615 18.0409 65.4205 18.0043 65.4599 17.9487L67.3279 15.3127C67.4046 15.2043 67.3837 15.0544 67.2803 14.9715C65.1459 13.257 62.7424 12.4234 59.9331 12.4234C55.8024 12.4234 52.9171 14.9048 52.9171 18.4557C52.9171 22.2634 55.406 23.6115 59.7071 24.6522C63.3679 25.4963 63.9857 26.2035 63.9857 27.4679C63.9857 28.8688 62.7363 29.7397 60.7257 29.7397C58.4929 29.7397 56.6713 28.9867 54.6337 27.2202C54.5832 27.1768 54.5139 27.1567 54.4498 27.1603C54.3826 27.1659 54.321 27.1971 54.2781 27.2488L52.1837 29.7442C52.0958 29.8478 52.107 30.0025 52.2083 30.092C54.5792 32.2108 57.4947 33.3301 60.6411 33.3301C65.0922 33.3301 67.9684 30.8951 67.9684 27.1267C67.9684 23.9419 66.0677 22.1805 61.4068 21.0457Z" fill="#1ED760"/>
<path id="path18" d="M81.2698 25.3141C81.2698 28.0035 79.6151 29.8801 77.2458 29.8801C74.9034 29.8801 73.1366 27.9182 73.1366 25.3141C73.1366 22.7105 74.9034 20.7483 77.2458 20.7483C79.577 20.7483 81.2698 22.6681 81.2698 25.3141ZM78.0387 17.2685C76.1094 17.2685 74.5269 18.0292 73.222 19.588V17.8335C73.222 17.695 73.1098 17.5821 72.9715 17.5821H69.5462C69.4078 17.5821 69.2959 17.695 69.2959 17.8335V37.329C69.2959 37.4675 69.4078 37.5803 69.5462 37.5803H72.9715C73.1098 37.5803 73.222 37.4675 73.222 37.329V31.1754C74.5272 32.6417 76.1099 33.3579 78.0387 33.3579C81.6236 33.3579 85.2526 30.5952 85.2526 25.3141C85.2526 20.0319 81.6236 17.2685 78.0387 17.2685Z" fill="#1ED760"/>
<path id="path20" d="M94.5548 29.9082C92.0992 29.9082 90.2479 27.933 90.2479 25.3141C90.2479 22.6843 92.0352 20.7758 94.4982 20.7758C96.9696 20.7758 98.8334 22.751 98.8334 25.3716C98.8334 28.0011 97.0339 29.9082 94.5548 29.9082ZM94.5548 17.2685C89.9381 17.2685 86.3212 20.8275 86.3212 25.3716C86.3212 29.8663 89.9132 33.3879 94.4982 33.3879C99.1313 33.3879 102.759 29.841 102.759 25.3141C102.759 20.8025 99.1561 17.2685 94.5548 17.2685Z" fill="#1ED760"/>
<path id="path22" d="M112.618 17.5823H108.849V13.7241C108.849 13.5856 108.737 13.473 108.599 13.473H105.174C105.035 13.473 104.922 13.5856 104.922 13.7241V17.5823H103.275C103.137 17.5823 103.026 17.6951 103.026 17.8337V20.7809C103.026 20.9193 103.137 21.0321 103.275 21.0321H104.922V28.6584C104.922 31.7403 106.454 33.3027 109.476 33.3027C110.705 33.3027 111.724 33.0487 112.685 32.5034C112.763 32.4597 112.812 32.3755 112.812 32.2859V29.4793C112.812 29.3926 112.767 29.3111 112.693 29.2655C112.618 29.2187 112.525 29.2163 112.449 29.2542C111.789 29.5865 111.151 29.7399 110.438 29.7399C109.339 29.7399 108.849 29.2406 108.849 28.121V21.0321H112.618C112.756 21.0321 112.868 20.9193 112.868 20.7809V17.8337C112.868 17.6951 112.756 17.5823 112.618 17.5823Z" fill="#1ED760"/>
<path id="path24" d="M125.751 17.5973V17.1235C125.751 15.7294 126.285 15.1078 127.483 15.1078C128.197 15.1078 128.77 15.2497 129.413 15.4643C129.492 15.4892 129.574 15.4767 129.639 15.4293C129.705 15.3819 129.742 15.3059 129.742 15.2254V12.3356C129.742 12.2251 129.671 12.1274 129.565 12.0951C128.887 11.893 128.018 11.6853 126.718 11.6853C123.554 11.6853 121.882 13.469 121.882 16.8417V17.5674H120.236C120.098 17.5674 119.985 17.68 119.985 17.8185V20.7808C119.985 20.9193 120.098 21.032 120.236 21.032H121.882V32.7952C121.882 32.9337 121.993 33.0463 122.131 33.0463H125.557C125.695 33.0463 125.808 32.9337 125.808 32.7952V21.032H129.006L133.905 32.7921C133.349 34.0277 132.802 34.2735 132.056 34.2735C131.452 34.2735 130.817 34.0931 130.167 33.7371C130.106 33.7034 130.034 33.6979 129.967 33.7183C129.902 33.7416 129.847 33.7901 129.819 33.854L128.658 36.4039C128.603 36.5243 128.65 36.6659 128.766 36.7284C129.978 37.3855 131.072 37.666 132.424 37.666C134.954 37.666 136.352 36.4863 137.584 33.313L143.527 17.9396C143.557 17.8622 143.548 17.7751 143.501 17.7062C143.454 17.6384 143.378 17.5973 143.295 17.5973H139.729C139.622 17.5973 139.526 17.6652 139.491 17.7655L135.838 28.2118L131.837 17.7587C131.8 17.6614 131.707 17.5973 131.603 17.5973H125.751Z" fill="#1ED760"/>
<path id="path26" d="M118.138 17.5823H114.712C114.574 17.5823 114.461 17.6952 114.461 17.8337V32.7953C114.461 32.9338 114.574 33.0464 114.712 33.0464H118.138C118.276 33.0464 118.388 32.9338 118.388 32.7953V17.8337C118.388 17.6952 118.276 17.5823 118.138 17.5823Z" fill="#1ED760"/>
<path id="path28" d="M116.442 10.7697C115.085 10.7697 113.984 11.8697 113.984 13.228C113.984 14.5874 115.085 15.6885 116.442 15.6885C117.799 15.6885 118.899 14.5874 118.899 13.228C118.899 11.8697 117.799 10.7697 116.442 10.7697Z" fill="#1ED760"/>
<path id="path30" d="M146.592 19.0704H145.964V19.8717H146.592C146.905 19.8717 147.092 19.7182 147.092 19.4709C147.092 19.2102 146.905 19.0704 146.592 19.0704ZM146.999 20.2134L147.681 21.1693H147.106L146.492 20.2926H145.964V21.1693H145.483V18.6359H146.611C147.199 18.6359 147.586 18.9371 147.586 19.4439C147.586 19.8592 147.346 20.113 146.999 20.2134ZM146.464 17.793C145.23 17.793 144.295 18.7754 144.295 19.979C144.295 21.1817 145.223 22.1512 146.452 22.1512C147.686 22.1512 148.622 21.1693 148.622 19.9652C148.622 18.7625 147.693 17.793 146.464 17.793ZM146.452 22.3926C145.096 22.3926 144.041 21.3025 144.041 19.979C144.041 18.6552 145.11 17.5528 146.464 17.5528C147.82 17.5528 148.875 18.6427 148.875 19.9652C148.875 21.289 147.807 22.3926 146.452 22.3926Z" fill="#1ED760"/>
</g>
</g>
</g>
<defs>
<clipPath id="clip0_67_217">
<rect width="150" height="45.0397" fill="white" transform="translate(0 0.22998)"/>
</clipPath>
</defs>
</svg>
